<svg xmlns="http://www.w3.org/2000/svg" width="110.426" height="21" viewBox="0 0 110.426 21">
  <g id="Group_162454" data-name="Group 162454" transform="translate(-84 -613)">
    <g id="noun-arrow-1569919" transform="translate(158.726 613)">
      <g id="Group_162450" data-name="Group 162450" transform="translate(0 0)">
        <path id="Path_83185" data-name="Path 83185" d="M51.7,992.859a1.766,1.766,0,0,0-.427-1.083l-8.4-8.925a1.8,1.8,0,0,0-2.3-.131,1.641,1.641,0,0,0,.016,2.3l5.906,6.267H17.575a1.575,1.575,0,0,0,0,3.15H46.5l-5.906,6.267a1.736,1.736,0,0,0-.016,2.3,1.781,1.781,0,0,0,2.3-.131l8.4-8.925a1.515,1.515,0,0,0,.427-1.083Z" transform="translate(-16 -982.362)" fill="#202020"/>
      </g>
    </g>
    <g id="noun-arrow-1569919-2" data-name="noun-arrow-1569919" transform="translate(119.7 634) rotate(180)">
      <g id="Group_162450-2" data-name="Group 162450" transform="translate(0 0)">
        <path id="Path_83185-2" data-name="Path 83185" d="M35.7,10.5a1.766,1.766,0,0,0-.427-1.083L26.874.489a1.8,1.8,0,0,0-2.3-.131,1.641,1.641,0,0,0,.016,2.3L30.5,8.922H1.575a1.575,1.575,0,0,0,0,3.15H30.5L24.593,18.34a1.736,1.736,0,0,0-.016,2.3,1.781,1.781,0,0,0,2.3-.131l8.4-8.925A1.515,1.515,0,0,0,35.7,10.5Z" fill="#202020"/>
      </g>
    </g>
  </g>
</svg>
